<svg xmlns="http://www.w3.org/2000/svg" xmlns:xlink="http://www.w3.org/1999/xlink" version="1.1" x="0px" y="0px" viewBox="0 0 80 100" enable-background="new 0 0 80 80" xml:space="preserve"><g><path fill="#000000" d="M57,71H20c-2.8,0-5-2.2-5-5V14c0-2.8,2.2-5,5-5h37c2.8,0,5,2.2,5,5v52C62,68.8,59.8,71,57,71z M20,11   c-1.7,0-3,1.3-3,3v52c0,1.7,1.3,3,3,3h37c1.7,0,3-1.3,3-3V14c0-1.7-1.3-3-3-3H20z"/></g><g><path fill="#000000" d="M49.2,18H27.8c-1.5,0-2.8-1.3-2.8-2.8V10h2v5.2c0,0.4,0.4,0.8,0.8,0.8h21.4c0.4,0,0.8-0.4,0.8-0.8V10h2v5.2   C52,16.7,50.7,18,49.2,18z"/></g><g><polygon fill="#000000" points="58,65 19,65 19,14 26,14 26,16 21,16 21,63 56,63 56,16 51,16 51,14 58,14  "/></g><g><path fill="#000000" d="M34,27H23v-7h11V27z M25,25h7v-3h-7V25z"/></g><g><rect x="23" y="32" fill="#000000" width="31" height="2"/></g><g><rect x="23" y="40" fill="#000000" width="24" height="2"/></g><g><rect x="23" y="36" fill="#000000" width="28" height="2"/></g><g><rect x="23" y="44" fill="#000000" width="28" height="2"/></g><g><polygon fill="#000000" points="49,60.4 46.3,57.7 47.7,56.3 49,57.6 52.3,54.3 53.7,55.7  "/></g><text x="0" y="95" fill="#000000" font-size="5px" font-weight="bold" font-family="'Helvetica Neue', Helvetica, Arial-Unicode, Arial, Sans-serif">Created by Yaroslav Samoilov</text><text x="0" y="100" fill="#000000" font-size="5px" font-weight="bold" font-family="'Helvetica Neue', Helvetica, Arial-Unicode, Arial, Sans-serif">from the Noun Project</text></svg>